<?xml version="1.0" standalone="no"?>
<!DOCTYPE svg PUBLIC "-//W3C//DTD SVG 20010904//EN"
 "http://www.w3.org/TR/2001/REC-SVG-20010904/DTD/svg10.dtd">
<svg version="1.0" xmlns="http://www.w3.org/2000/svg"
 width="612.000000pt" height="612.000000pt" viewBox="0 0 612.000000 612.000000"
 preserveAspectRatio="xMidYMid meet">
<metadata>
Created by potrace 1.14, written by Peter Selinger 2001-2017
</metadata>
<g transform="translate(0.000000,612.000000) scale(0.100000,-0.100000)"
fill="#000000" stroke="none">
<path d="M3834 4270 c-29 -11 -31 -15 -48 -101 -19 -87 -20 -120 -5 -173 29
-104 136 -117 212 -26 33 39 47 88 47 165 0 67 -15 97 -58 119 -35 17 -121 26
-148 16z m116 -58 c68 -33 63 -142 -10 -214 -40 -40 -64 -47 -95 -24 -27 19
-32 118 -10 185 24 72 50 85 115 53z"/>
<path d="M4201 4222 c-55 -27 -75 -63 -79 -141 -5 -85 13 -124 62 -141 28 -9
42 -8 72 5 51 21 72 41 99 95 50 100 42 138 -37 178 -54 27 -72 27 -117 4z
m102 -51 c33 -13 38 -41 17 -88 -30 -67 -89 -105 -130 -83 -16 8 -20 20 -20
58 1 92 59 141 133 113z"/>
<path d="M2086 4210 c-27 -11 -60 -29 -73 -42 -23 -21 -25 -29 -21 -88 8 -110
63 -188 148 -211 131 -35 179 91 99 261 -50 108 -64 115 -153 80z m79 -56 c30
-30 57 -98 62 -155 5 -53 4 -58 -20 -74 -24 -16 -28 -15 -70 3 -50 22 -94 84
-104 146 -5 31 -1 40 27 66 36 34 79 39 105 14z"/>
<path d="M2539 4206 c-66 -14 -98 -33 -134 -80 -57 -74 -82 -220 -55 -317 25
-90 148 -136 238 -90 82 43 152 182 152 301 -1 57 -38 148 -70 171 -36 25 -68
28 -131 15z m96 -60 c13 -8 31 -36 41 -62 15 -39 16 -56 7 -108 -13 -77 -45
-144 -89 -190 -30 -31 -41 -36 -82 -36 -53 0 -112 30 -113 57 -8 167 6 243 57
310 39 52 123 65 179 29z"/>
<path d="M3400 4158 c-156 -57 -85 -371 105 -463 79 -39 150 -22 215 51 32 37
32 39 26 106 -12 128 -81 254 -161 292 -48 23 -140 30 -185 14z m170 -57 c55
-39 88 -97 111 -196 17 -77 19 -101 10 -121 -11 -26 -80 -63 -117 -64 -39 0
-113 58 -153 120 -80 124 -72 234 20 275 40 18 93 12 129 -14z"/>
<path d="M4520 4119 c-38 -15 -88 -68 -101 -106 -11 -35 -4 -109 13 -130 6 -7
25 -15 44 -19 73 -13 214 89 214 156 0 84 -84 133 -170 99z m102 -56 c10 -9
18 -24 18 -33 0 -44 -100 -124 -148 -118 -75 9 2 167 82 168 16 0 38 -7 48
-17z"/>
<path d="M1735 4091 c-33 -19 -85 -76 -85 -92 0 -25 33 -82 70 -123 67 -73
156 -85 201 -28 18 23 20 36 16 83 -7 80 -39 136 -90 160 -53 23 -74 24 -112
0z m114 -70 c19 -19 41 -79 41 -113 0 -24 -36 -41 -72 -33 -44 10 -108 78
-108 115 0 22 6 33 23 40 40 16 96 11 116 -9z"/>
<path d="M4689 3915 c-35 -23 -69 -77 -69 -110 0 -27 19 -54 50 -70 83 -43
190 17 190 105 0 31 -7 44 -35 69 -43 38 -85 40 -136 6z m105 -41 c22 -22 20
-38 -10 -73 -18 -21 -35 -31 -54 -31 -69 0 -79 33 -26 86 37 37 66 43 90 18z"/>
<path d="M1443 3914 c-62 -31 -78 -117 -30 -162 32 -30 127 -72 164 -72 78 0
110 38 94 112 -24 106 -137 167 -228 122z m105 -48 c66 -34 104 -114 64 -135
-43 -23 -182 48 -182 94 0 22 41 55 67 55 13 0 36 -6 51 -14z"/>
<path d="M4138 3840 c-224 -40 -444 -208 -479 -366 -11 -47 -10 -62 4 -107 21
-67 59 -127 129 -202 63 -69 77 -93 108 -190 17 -52 22 -95 22 -170 1 -120
-26 -215 -92 -326 -54 -91 -90 -196 -97 -286 -5 -61 -2 -78 17 -118 26 -53 92
-110 177 -152 51 -24 69 -28 148 -28 75 0 98 5 140 25 75 36 142 112 218 248
131 233 226 473 299 757 30 120 33 141 32 275 -2 240 -41 371 -142 482 -64 69
-133 114 -213 139 -71 22 -204 32 -271 19z m261 -70 c123 -35 192 -95 257
-225 110 -223 75 -586 -97 -1002 -71 -171 -186 -396 -238 -463 -58 -76 -117
-116 -196 -133 -48 -10 -66 -9 -123 6 -74 19 -155 69 -193 119 -21 29 -24 42
-22 110 2 103 22 166 87 274 65 107 85 173 93 304 10 178 -50 381 -133 446
-77 62 -104 95 -120 150 -19 67 -13 113 26 182 53 91 212 201 342 236 81 22
229 20 317 -4z"/>
<path d="M1885 3730 c-234 -50 -391 -217 -420 -446 -7 -57 9 -224 31 -329 32
-149 253 -546 422 -757 103 -129 262 -287 315 -314 99 -50 205 -51 307 -2 56
27 150 120 180 178 50 99 0 249 -137 406 -139 159 -182 253 -190 414 -7 127 7
195 57 279 59 99 82 166 82 236 1 77 -24 127 -90 186 -107 97 -246 149 -407
154 -60 2 -128 0 -150 -5z m315 -70 c94 -32 184 -85 229 -137 78 -88 78 -214
-1 -299 -63 -68 -83 -136 -82 -284 0 -99 4 -141 23 -205 31 -111 75 -196 128
-247 86 -83 130 -146 162 -229 17 -44 31 -94 31 -111 0 -67 -74 -165 -161
-213 -48 -27 -63 -30 -139 -30 -70 0 -94 4 -135 25 -66 32 -176 144 -304 309
-346 446 -491 822 -426 1098 42 180 145 279 345 333 96 26 234 22 330 -10z"/>
<path d="M1292 3670 c-72 -71 -29 -165 81 -177 74 -9 127 31 127 94 0 38 -23
69 -70 93 -58 29 -102 26 -138 -10z m127 -46 c35 -29 40 -59 12 -74 -47 -25
-121 8 -121 54 0 51 59 62 109 20z"/>
</g>
</svg>
